# xmcd
#
# Track frame offsets:
#	183
#	15205
#	26103
#	36608
#	45920
#	56108
#	68128
#	79823
#	91693
#	102560
#	114565
#	125358
#	136648
#	149123
#	160558
#	173733
#	187308
#	197273
#	207615
#	217375
#
# Disc length: 3057 seconds
#
# Revision: 2
# Processed by: cddbd v1.5.1PL2 Copyright (c) Steve Scherf et al.
# Submitted via: SynApp - FreeCDDB Version: 2.0
#
DISCID=240bef14
DTITLE=Various Artist - Country and Western Hits 1960 - 1969
DYEAR=1985
DGENRE=country
TTITLE0=Jeanie C. Riley - Harper Valley P.T.A.
TTITLE1=Ferlin Husky - Wings Of A Dove
TTITLE2=David Houston - Have A Little Faith
TTITLE3=Jimmy Dean - The First Thing Every Morning
TTITLE4=Warner Mack - The Bridge Washed Out
TTITLE5=Del Reeves - Girl On The Billboard
TTITLE6=Henson Cargill - Skip A Rope
TTITLE7=Johnny Russel - Workin' Man Blues
TTITLE8=Johnny Russel - King Of The Road
TTITLE9=Jack Greene - There Goes My Everything
TTITLE10=Billy Walker - Charlie's Shoes
TTITLE11=Porter Wagoner - Misery Loves Company
TTITLE12=Claude King - Wolverton Mountain
TTITLE13=Kitty Wells - Heartbreak U.S.A.
TTITLE14=Wanda Jackson - I Fall To Pieces
TTITLE15=Jimmy Dean - Big Bad John
TTITLE16=Hank Locklin - Please Help Me I'm Falling
TTITLE17=Faron Young - Hello Walls
TTITLE18=Dave Dudley - Truck Drivin' Son-Of-A-Gun
TTITLE19=Dave Dudley - Mad
EXTD=
EXTT0=
EXTT1=
EXTT2=
EXTT3=
EXTT4=
EXTT5=
EXTT6=
EXTT7=
EXTT8=
EXTT9=
EXTT10=
EXTT11=
EXTT12=
EXTT13=
EXTT14=
EXTT15=
EXTT16=
EXTT17=
EXTT18=
EXTT19=
PLAYORDER=
